<svg xmlns="http://www.w3.org/2000/svg" viewBox="0 0 64 64">
  <rect width="64" height="64" rx="18" fill="#17704b"/>
  <!-- Compact: same scene with bolder shapes and fewer details, legible at 16px -->
  <path d="M27.5 14Q24 9.5 20 6M36.5 14Q40 9.5 44 6" fill="none" stroke="#fff" stroke-width="3.6" stroke-linecap="round"/>
  <circle cx="20" cy="6" r="4.2" fill="#f6b81c"/>
  <circle cx="44" cy="6" r="4.2" fill="#f6b81c"/>
  <circle cx="32" cy="20" r="10" fill="#fff"/>
  <circle cx="32" cy="19" r="4.4" fill="#17704b"/>
  <circle cx="33.6" cy="17.6" r="1.4" fill="#fff"/>
  <g fill="#fff" stroke="#17704b" stroke-width="3" paint-order="stroke" stroke-linejoin="round">
    <path d="M22.5 33C15 28 11 19 11 11C18.5 14.5 25.5 22.5 27.5 30.5Z"/>
    <path d="M41.5 33C49 28 53 19 53 11C45.5 14.5 38.5 22.5 36.5 30.5Z"/>
    <path d="M20.5 35Q20.5 29 26.5 29H37.5Q43.5 29 43.5 35L41.6 53Q40.6 61 32 61Q23.4 61 22.4 53Z"/>
  </g>
  <circle cx="27" cy="39" r="2.6" fill="#17704b"/>
  <circle cx="37" cy="39" r="2.6" fill="#17704b"/>
  <path d="M23.6 50H40.4" stroke="#17704b" stroke-width="2.6"/>
</svg>
